<svg width="15" height="9" viewBox="0 0 15 9" fill="none" xmlns="http://www.w3.org/2000/svg">
<path fill-rule="evenodd" clip-rule="evenodd" d="M13.9839 2.195L8.01592 8.16295C7.90496 8.27482 7.77295 8.36362 7.6275 8.42422C7.48205 8.48481 7.32604 8.51601 7.16847 8.51601C7.0109 8.51601 6.85489 8.48481 6.70944 8.42422C6.56399 8.36362 6.43198 8.27482 6.32102 8.16295L0.353069 2.19499C0.241196 2.08403 0.152397 1.95202 0.0918006 1.80657C0.0312032 1.66112 5.66268e-06 1.50511 5.66957e-06 1.34754C5.67646e-06 1.18998 0.0312032 1.03397 0.0918007 0.888518C0.152397 0.743068 0.241196 0.611055 0.353069 0.500096C0.464029 0.388222 0.596041 0.299426 0.74149 0.238829C0.88694 0.178232 1.04295 0.147033 1.20052 0.147033C1.35809 0.147033 1.5141 0.178232 1.65954 0.238829C1.805 0.299426 1.93701 0.388222 2.04797 0.500096L7.16847 5.63254L12.289 0.500096C12.5137 0.275339 12.8186 0.149072 13.1364 0.149072C13.2938 0.149072 13.4497 0.18007 13.5951 0.240299C13.7405 0.300528 13.8726 0.388808 13.9839 0.500096C14.2086 0.724854 14.3349 1.02969 14.3349 1.34755C14.3349 1.50493 14.3039 1.66078 14.2437 1.80618C14.1834 1.95159 14.0952 2.08371 13.9839 2.195Z" fill="#737373"/>
</svg>
