<svg width="9" height="16" viewBox="0 0 9 16" fill="none" xmlns="http://www.w3.org/2000/svg">
<path fill-rule="evenodd" clip-rule="evenodd" d="M2.51746 1.25354L8.48541 7.2215C8.59729 7.3324 8.6861 7.46442 8.7467 7.60986C8.80731 7.75531 8.8385 7.91138 8.8385 8.06891C8.8385 8.2265 8.80731 8.38251 8.7467 8.52795C8.6861 8.6734 8.59729 8.80542 8.48541 8.91638L2.51746 14.8843C2.40656 14.9962 2.27454 15.085 2.12909 15.1456C1.98364 15.2062 1.82758 15.2374 1.67004 15.2374C1.51245 15.2374 1.35645 15.2062 1.211 15.1456C1.06555 15.085 0.933533 14.9962 0.822571 14.8843C0.710693 14.7734 0.621887 14.6414 0.56134 14.4959C0.500732 14.3505 0.469543 14.1945 0.469543 14.0369C0.469543 13.8793 0.500732 13.7233 0.56134 13.5778C0.621887 13.4324 0.710693 13.3004 0.822571 13.1894L5.95502 8.06891L0.822571 2.94843C0.597839 2.72363 0.471558 2.41882 0.471558 2.10095C0.471558 1.9436 0.502563 1.78772 0.562805 1.64233C0.623047 1.49695 0.711304 1.36481 0.822571 1.25354C1.04736 1.02875 1.35217 0.902466 1.67004 0.902466C1.82739 0.902466 1.98328 0.933472 2.12866 0.993713C2.27405 1.05396 2.40619 1.14221 2.51746 1.25354Z" fill="white"/>
</svg>
